<?xml version="1.0" encoding="utf-8"?>
<!-- Generator: Adobe Illustrator 20.0.0, SVG Export Plug-In . SVG Version: 6.00 Build 0)  -->
<svg version="1.1" id="Page_1" xmlns="http://www.w3.org/2000/svg" xmlns:xlink="http://www.w3.org/1999/xlink" x="0px" y="0px"
	 width="418px" height="202px" viewBox="0 0 418 202" style="enable-background:new 0 0 418 202;" xml:space="preserve">
<style type="text/css">
	.st0{fill-rule:evenodd;clip-rule:evenodd;fill:#0A0A0A;}
	.st1{fill:#FCEE21;}
	.st2{fill:#ED1C24;}
</style>
<g id="_x2014_ÎÓÈ_1_1_">
	<path class="st0" d="M12.159,198.348v-11.051c0-15.584,0-31.167,0-46.751c0-3.75,0-7.498,0-11.248l-9.774-1.023
		c4.684-17.289,10.143-34.192,14.643-50.616h11.027v-3.731h6.063l0.013-8.781l3.717-0.546l2.09-19.1l1.659,18.976l6.03,0.591v8.86
		h2.346c4.941,0,0.933-0.955,0.933-2.332V69.73h1.399V38.485c0-2.702-2.103-6.063,0.466-6.063h1.865V21.23l1.496,0.001l0.052-6.658
		h0.784v6.657h6.595v11.193h1.399c2.352,0,0.466,6.141,0.466,8.394v28.862l12.37-0.846l5.898-14.662l3.928,9.765v-7.081h6.185
		V35.687h10.26v-1.399c2.186-0.182,2.306-0.933,4.663-0.933l1.418-0.128l8.375,1.061v-0.933h6.529l0.011,46.995l6.051,0.573v2.332
		h0.933V43.148h6.062v-3.731h4.197c7.27,0,7.928,1.991,7.928,8.861v31.245c2.28-0.609,2.798-2.266,2.798-5.13
		c0.236-0.339,0.959-1.191,0.944-1.401l-0.313-3.597l1.701-1.998c0.848,3.176,1.21,4.972,1.9,8.36
		c0.778,3.824,4.162,4.941,4.162,7.03v1.399h0.934l0.002,1.085h3.929c2.532-21.489,26.583-30.918,43.34-23.409
		c1.51,0.676,2.909,1.482,4.211,2.394l0.167-24.586c0.144-0.253,0.287-0.507,0.431-0.76c0.068-0.068,0.135-0.135,0.203-0.203
		c-8.115-0.153-11.938-5.601-12.453-11.806l-1.878,0.227c0.001,0.022,0.001,0.043,0.001,0.065c0,1.26-1.022,2.281-2.281,2.281
		c-1.26,0-2.281-1.022-2.281-2.281c0-1.26,1.022-2.282,2.281-2.282c1.126,0,2.061,0.816,2.247,1.888l1.884-0.262
		c-0.115-1.851,0.06-3.76,0.5-5.61l-1.651-0.559c-0.315,0.793-1.054,1.349-1.916,1.349c-1.148,0-2.079-0.988-2.079-2.205
		c0-1.218,0.931-2.205,2.079-2.205c1.148,0,2.079,0.987,2.079,2.205c0,0.181-0.021,0.357-0.06,0.525l1.647,0.49
		c0.254-0.977,0.582-1.935,0.979-2.855c-0.366-0.464-0.589-1.082-0.589-1.759c0-1.442,1.01-2.611,2.256-2.611
		c0.304,0,0.593,0.07,0.858,0.196c0.591-0.716,1.24-1.372,1.944-1.951l-0.592-0.916c-0.287,0.153-0.606,0.238-0.943,0.238
		c-1.246,0-2.256-1.169-2.256-2.611c0-1.442,1.01-2.611,2.256-2.611c1.246,0,2.256,1.169,2.256,2.611
		c0,0.978-0.465,1.831-1.153,2.278l0.588,0.885c0.203-0.163,0.41-0.321,0.622-0.47c0.608-3.576,2.625-4.39,4.994-4.512
		c0.136,1.489,0.521,2.979,1.197,4.468c-1.119-0.078-2.117,0.111-2.898,0.777c0.318,0.551,0.636,1.102,0.954,1.653
		c-1.839,0.542-2.414,1.411-2.426,2.426c0.867-0.696,1.892-1.248,3.239-1.507l-0.022-2.55l0.545,2.466
		c0.683-0.088,1.445-0.104,2.302-0.034c0.414-1.062,0.827-2.125,1.24-3.187c0.414,1.09,0.828,2.18,1.242,3.27
		c2.964,0.752,4.924,2.357,6.214,4.513l1.534-1.012c-1.054-3.135-3.583-5.287-7.799-6.315c0.448-1.386,0.896-2.772,1.343-4.157
		c4.946,0.834,8.025,4.347,9.242,8.633l2.254-1.487c-0.082-0.275-0.114-0.576-0.086-0.891c0.117-1.316,1.234-2.383,2.494-2.383
		c1.26,0,2.186,1.067,2.069,2.383c-0.117,1.316-1.234,2.383-2.494,2.383c-0.788,0-1.446-0.418-1.799-1.053l-2.313,1.514
		c0.376,1.505,0.528,3.095,0.456,4.69l2.17-0.528c-0.007-0.103-0.006-0.207,0.003-0.314c0.104-1.26,1.3-2.281,2.672-2.281
		c1.372,0,2.4,1.021,2.296,2.281c-0.104,1.26-1.3,2.282-2.672,2.282c-1.098,0-1.976-0.655-2.229-1.562l-2.265,0.561
		c-0.038,0.537-0.101,1.073-0.19,1.607c-1.139,6.848-5.659,13.159-12.598,14.99c0.22,0.135,0.439,0.27,0.659,0.406
		c0.084,0.321,0.169,0.642,0.253,0.963l0.709,29.783c3.301,3.814,5.834,8.379,8.049,12.995l13.858-13.972
		c-0.245-0.065-0.491-0.13-0.736-0.196c-0.94,0.568-1.583,0.717-1.909,0.426c-0.686,0.387-1.693,0.531-2.358,0.173
		c-1.649-0.713-3.297-1.426-4.946-2.139c-2.28,0.448-4.561,0.896-6.841,1.345c0.713-0.66,1.426-1.319,2.14-1.979
		c0.958-0.368,1.917-0.736,2.876-1.104c0.629-0.859,1.258-1.718,1.886-2.577c0.604-0.685,1.419-1.018,2.3-1.242
		c4.701-1.158,9.401-2.316,14.102-3.474c0.514-0.659,1.028-1.319,1.541-1.978c-7.001,1.971-14.002,3.941-21.003,5.912
		c-0.584,0.079-0.697-0.348-0.483-1.127c0.984-2.512,2.581-4.443,4.669-5.912c5.375-1.933,10.751-3.865,16.126-5.797
		c0.744-0.261,1.488-0.522,2.232-0.782c1.672-0.59,3.343-1.181,5.015-1.771c1.068-0.84,2.001-1.41,2.393-0.897
		c0.847-0.621,1.695-1.242,2.542-1.863c-1.254-0.464-2.508-0.928-3.761-1.392c0.092-0.057,0.184-0.115,0.276-0.172
		c1.235,0.349,2.469,0.698,3.704,1.046c1.928-4.052,4.536-6.403,7.937-6.775c1.986-1.465,3.972-2.929,5.958-4.394
		c0.307-0.054,0.614-0.107,0.92-0.161c1.842,0.927,3.289,2.117,3.658,4.026c-1.405,4.735-6.295,8.889-10.214,13.205
		c0.123,4.126,0.245,8.251,0.368,12.377c-0.011,0.602-0.127,1.161-0.414,1.61c-1.733,1.303-3.466,2.607-5.199,3.911
		c-0.337,0.075-0.675,0.065-1.012-0.414c-1.089-2.73-2.178-5.46-3.267-8.19c-5.008,4.581-10.158,8.795-15.781,11.778l-3.497,4.278
		c0.626,3.393,1.577,6.613,2.738,9.721c3.527-0.007,29.521-0.015,29.388-0.215l3.57-2.181c-0.436-1.87-0.833-1.917-0.833-4.169
		c0.671-2.809,2.502-4.82,5.785-5.833l-0.905-8.438l1.788-2.4c-0.571-1.017-0.833-0.892-0.833-2.501
		c0-2.073,2.084-3.135,3.333-5.001v-5.001l0.833-0.162l0.835,5.997c1.837,0.973,3.333,0.727,3.333,3.334
		c0,2.136-0.2,2.015-0.954,3.435l1.788,2.4c-1.025,0.855-0.834-1.358-0.834,1.668v6.668c2.144,0.04,5.211,1.98,5.635,4.136
		l0.003-21.97l4.429-1.013l0.12-4.674l-0.586-7.451c0.397-0.592,1.865-2.02,1.865-2.332c0-1.694-1.865-1.731-1.865-3.73
		c0-2.426,2.018-0.471,2.337-4.197c0.247-2.904-0.461-4.169,1.394-4.665v1.399c0,2.434,0.129,4.898,2.331,6.063
		c0.086-3.843,3.537-1.85,2.798-10.727h1.399c0,7.319,3.264,9.092,3.264,10.26c0,0.789-0.62,1.743-0.932,2.331
		c2.166-0.578,2.888-5.09,6.616-6.096l-0.367-0.84l0.147-0.169l2.893-2.696l-0.427-0.459c-1.466-0.531-2.798-2.212-2.798-4.197
		v-0.934c0-2.204,3.041-2.615,3.935-5.859c0.92-3.344,0.326-6.219,0.287-8.994L322.819,4l1.409,0.441
		c-0.089,3.948-0.081,4.939,0.568,8.755c0.839,4.935,4.095,3.057,4.095,7.102c0,3.436-2.331,3.436-2.331,5.129
		c0,3.192,2.703-0.688,1.865,3.265l0.409-0.394l4.721,5.523c2.167-1.147,2.331-3.793,2.331-6.996l0.907,0.003l0.492,6.06
		c1.306,0.691,1.866,0.751,1.866,2.798c0,1.715-1.399,1.083-1.399,2.798c0,1.458,0.837,1.321,1.949,1.872l-0.549,7.922v2.331
		c0,2.037,0.932,1.694,0.932,3.731v1.865h2.798v-2.332c0-1.621,0.933-0.711,0.933-2.332l0.119-2.806l-0.482-9.256l2.163-3.548
		l-0.401-0.245c-1.434-0.383-1.866-0.907-1.866-2.798c0-1.187,1.586-2.15,2.331-3.265c0-2.759-0.411-5.579,1.399-6.063
		c0,1.872,0.231,3.663,0.48,5.583c0.347,2.687,2.318,1.644,2.318,4.21c0,1.719-1.399,1.824-1.399,3.264v0.467
		c0,1.16,1.167,1.754,1.93,2.803l-0.531,7.456v4.197c0,1.046,0.369,1.024,0.611,1.886l0.322,5.576h0.932v4.664
		c0,1.62-0.932,0.712-0.932,2.331v9.793c0,1.075,0.324,1.399,1.399,1.399h8.394v-3.731c0-1.046-0.369-1.024-0.941-1.886l2.34-0.913
		c-0.244-1.046-0.467-1.073-0.467-2.332l0.118-1.228l3.119-2.035l-0.507-4.721l1-1.343c-0.319-0.569-0.466-0.499-0.466-1.399
		c0-1.16,1.166-1.754,1.865-2.798v-2.798l0.466-0.091l0.467,3.355c1.028,0.544,1.865,0.407,1.865,1.865
		c0,1.195-0.112,1.127-0.534,1.921l1,1.343c-0.573,0.479-0.466-0.761-0.466,0.932v3.731c1.015,0.271,3.264,1.593,3.264,2.798v0.466
		c0,1.259-0.222,1.286-0.49,2.457l2.356,0.341c-0.529,1.98-0.934,0.816-0.934,2.332v3.956l27.311,0.241
		c4.5,16.424,9.959,33.327,14.643,50.616l-9.407,0.985v7.915c0,8.355,0,16.711,0,25.066c0,8.352,0,16.704,0,25.056v11.493
		c-22.923-6.502-50.337-11.873-80.925-15.766l0.015,0.371c0.044,1.077,0.089,2.154,0.156,3.23l0.099,1.59
		c0.269,0.695,0.408,1.441,0.408,2.223c0,2.128-0.976,3.974-2.815,5.075c-1.58,0.946-3.426,1.157-5.23,0.961
		c-0.666-0.072-1.319-0.21-1.953-0.413l-1.562-0.164c-0.25-0.026-0.501-0.053-0.751-0.079l-2.772-0.292l-0.105-2.785
		c-0.046-1.228-0.092-2.455-0.115-3.684l-0.041-2.152c-0.105,0.04-0.211,0.077-0.318,0.113l-0.322,0.108
		c-0.055,0.071-0.112,0.142-0.172,0.211c-0.527,0.614-1.183,1.056-1.908,1.312v2.186c0,0.239,0,0.479,0,0.718v3.531l-3.516-0.33
		c-2.153-0.202-4.306-0.404-6.46-0.605l-2.917-0.273v-0.1c-0.104,0.025-0.208,0.047-0.313,0.068
		c-0.794,0.16-1.606,0.185-2.413,0.121c-1.137-0.09-2.259-0.328-3.307-0.781c-0.063,0.143-0.133,0.283-0.207,0.422
		c-0.53,0.98-1.333,1.756-2.294,2.309c-0.898,0.517-1.866,0.829-2.883,1.01c-1.117,0.198-2.299,0.184-3.428,0.105
		c-1.724-0.121-3.62-0.421-5.154-1.255c-1.48-0.804-2.524-2.06-2.873-3.626l-0.648-0.043c-2.147-0.141-4.295-0.28-6.443-0.409
		l-3.023-0.182v-0.03c-0.724,0.007-1.447,0.014-2.171,0.02l-1.388,0.012l-0.182-0.19c-0.061,0.017-0.121,0.033-0.182,0.048
		c-0.724,0.181-1.493,0.192-2.235,0.155c-1.782-0.089-3.415-0.79-4.556-2.183c-0.059-0.072-0.115-0.144-0.17-0.218
		c-1.581,1.406-3.592,2.056-5.722,1.976c-0.696-0.026-1.41-0.103-2.088-0.266c-0.321-0.077-0.643-0.165-0.959-0.272l-1.181,1.071
		l-1.878-0.772c-0.229-0.094-0.458-0.186-0.684-0.287l-1.84-0.824v0.717l-3.288-0.073c-2.409-0.054-4.818-0.109-7.228-0.166
		l-0.303-0.403c-0.053,0.021-0.106,0.043-0.159,0.063c-1.067,0.411-2.2,0.608-3.343,0.598c-1.873-0.015-3.621-0.578-5.045-1.82
		c-0.752-0.656-1.321-1.43-1.7-2.29c0,0.092,0,0.185,0,0.277v2.124l-1.954,0.834c-0.466,0.199-0.94,0.361-1.429,0.493
		c-0.68,0.182-1.385,0.266-2.09,0.259c-0.969-0.008-1.935-0.142-2.813-0.537c-0.341,0.144-0.689,0.265-1.05,0.36
		c-0.633,0.167-1.306,0.22-1.959,0.224c-0.709,0.004-1.395-0.101-2.042-0.315c-10.935-0.214-21.367,0.161-31.837,0.71v-0.207
		c-0.032,0.013-0.065,0.026-0.097,0.038v0.73c0,0.251,0,0.501,0,0.752v3.073l-3.07,0.139c-2.316,0.105-4.631,0.221-6.947,0.336
		l-3.376,0.168v-3.38c0-0.25,0-0.5,0-0.749v-2.771l0.054-0.008c-0.037-0.026-0.077-0.054-0.116-0.087
		c-0.199,1.263-0.766,2.423-1.546,3.46c-0.918,1.22-2.067,2.227-3.413,2.95l-2.496,1.341l-1.645-2.307
		c-0.204-0.286-0.387-0.582-0.568-0.883l-0.817-1.356c-12.534,0.437-24.55,1.532-36.704,3.321c-1.643,0.17-3.223-0.176-4.473-1.226
		c-0.144,0.139-0.296,0.272-0.455,0.401c-1.407,1.138-3.12,1.733-4.905,1.927c-0.639,0.069-1.269,0.075-1.898,0.016l-1.618,0.17
		c-0.25,0.026-0.499,0.055-0.749,0.081l-3.419,0.36l-0.131-3.436c-0.046-1.216-0.093-2.432-0.115-3.649l-0.056-2.954l0.34-0.035
		c-0.008-0.142-0.012-0.284-0.012-0.427c0-1.463,0.485-2.77,1.364-3.856C62.914,186.576,35.303,191.892,12.159,198.348
		L12.159,198.348z M219.506,78.485l0.131,5.535l1.477-0.009h1.645C221.778,82.244,220.691,80.358,219.506,78.485L219.506,78.485z
		 M213.356,85.273v-0.859c0.118,0,0.237,0,0.355,0l0.092-13.523c-0.853-0.913-1.737-1.755-2.651-2.5
		c-13.67-11.141-36.504-2.767-38.397,16.882h19.512l-0.095-0.611l1.182-2.241l-1.733-0.832l2.704-1.755l-2.275-0.071l3.27-2.325
		l0.449,0.241l-0.226,3.248l2.545,2.566l-0.28,0.461h-0.933l0.386,1.318h8.156l0.686-5.834l1.034-0.004l0.998,5.207l4.08,0.632
		H213.356L213.356,85.273z M216.568,35.811v0.895c1.667,0.301,4.042-1.573,4.569-2.231
		C219.712,35.229,218.227,35.795,216.568,35.811L216.568,35.811z M215.96,36.47v-0.678c-0.214-0.015-0.432-0.04-0.653-0.075
		C215.483,36.063,215.705,36.307,215.96,36.47L215.96,36.47z M204.641,26.195l0.664-0.092c-0.085-0.818-0.116-1.701-0.087-2.655
		C204.869,24.202,204.646,25.087,204.641,26.195L204.641,26.195z M205.354,26.522l-0.705,0.085c0.012,0.299,0.04,0.614,0.084,0.945
		c0.778,5.854,3.775,8.862,9.129,9.509c-0.439-0.634-0.879-1.267-1.318-1.901C208.741,33.947,206,31.476,205.354,26.522
		L205.354,26.522z M226.928,21.904l0.759-0.185c0.012-1.291-0.131-2.477-0.437-3.555l-1.454,0.951
		C226.263,19.971,226.634,20.907,226.928,21.904L226.928,21.904z M227.676,22.165l-0.631,0.156c0.172,0.64,0.313,1.305,0.43,1.988
		C227.584,23.567,227.651,22.852,227.676,22.165L227.676,22.165z M230.234,83.827l2.297-0.019c0.65-1.513,1.276-3.034,2.025-4.664
		L230.234,83.827L230.234,83.827z M234.526,83.792l6.869-0.056c-0.888-2.797-1.581-5.642-2.042-8.546
		C237.295,77.922,235.804,80.825,234.526,83.792L234.526,83.792z"/>
	<path class="st1" d="M23.562,94.198c6.941-0.018,13.884-0.045,20.826-0.075c5.605-0.025,9.949,0.415,12.956,1.34
		c3.044,0.924,5.309,2.225,6.831,3.952c1.522,1.716,2.561,3.8,3.081,6.234c0.557,2.442,0.817,6.224,0.817,11.374
		c0,2.396,0,4.772,0,7.158c0,5.225-0.519,9.101-1.559,11.591c-1.04,2.518-2.97,4.583-5.754,6.159
		c-2.784,1.593-6.46,2.651-10.952,3.131c-1.856,0.198-3.712,0.405-5.569,0.632c0,5.819,0,11.628,0,17.429c0,5.81,0,11.619,0,17.429
		c-6.905,1.405-13.81,2.801-20.678,4.178c0-15.081,0-30.181,0-45.26c0-6.332,0-12.67,0-19.008c0-0.779,0.182-2.255-0.619-2.336
		l-5.928-0.599L23.562,94.198L23.562,94.198z M83.35,60.698l4.452,10.684l11.899,0.786l-9.149,7.388l2.903,11.17L83.35,84.608
		l-10.105,6.117l2.903-11.17l-9.149-7.388l11.899-0.786L83.35,60.698L83.35,60.698z M44.24,108.864c0,7.347,0,14.684,0,22.022
		c0.594-0.019,1.114-0.05,1.522-0.085c1.893-0.162,3.193-0.755,3.935-1.82c0.705-1.047,1.077-3.15,1.077-6.319
		c0-2.33,0-4.679,0-7.017c0-2.913-0.408-4.801-1.262-5.65C48.695,109.147,46.914,108.77,44.24,108.864L44.24,108.864z M94.73,93.953
		c0,13.034,0,26.077,0,39.111c0,13.024,0,26.068,0,39.101c-6.906,1.019-13.81,2.075-20.716,3.131c0-13.543,0-27.096,0-40.639
		c0-13.543,0-27.096,0-40.639C80.919,93.991,87.824,93.972,94.73,93.953L94.73,93.953z M137.571,93.859c0,4.885,0,9.771,0,14.656
		c-2.562,7.422-5.167,14.909-7.685,22.436c-2.53,7.562-5.123,15.203-7.648,22.88c5.086-0.415,10.209-0.83,15.333-1.245
		c0,4.885,0,9.77,0,14.656c-12.696,1.283-25.394,2.698-38.09,4.31c0-3.744,0-7.498,0-11.251c2.636-8.724,5.297-17.386,7.945-25.974
		c2.623-8.51,5.309-16.948,7.981-25.323c-4.677,0.123-9.355,0.254-14.033,0.387c0-5.159,0-10.308,0-15.458
		C113.44,93.906,125.505,93.878,137.571,93.859L137.571,93.859z M177.479,93.803c0,4.715,0,9.421,0,14.137
		c-2.562,7.12-5.164,14.277-7.684,21.437c-2.528,7.185-5.123,14.42-7.648,21.682c5.086-0.226,10.209-0.424,15.332-0.613
		c0,4.706,0,9.421,0,14.128c-12.696,0.604-25.393,1.519-38.09,2.49c0-3.536,0-7.073,0-10.61c2.636-8.159,5.301-16.262,7.945-24.324
		c2.627-8.009,5.308-15.986,7.981-23.917c-4.677,0.075-9.355,0.151-14.033,0.226c0-4.866,0-9.733,0-14.59
		C153.348,93.83,165.414,93.812,177.479,93.803L177.479,93.803z M182.826,93.793c6.83,0,13.699-0.005,20.566-0.009
		c6.496-0.004,11.435,0.443,14.776,1.339c3.341,0.887,6.051,2.707,8.094,5.423c2.079,2.726,3.08,7.121,3.08,13.166
		c0,4.102-0.705,6.941-2.153,8.545c-1.485,1.622-4.343,2.839-8.65,3.688c4.789,0.981,8.056,2.565,9.764,4.772
		c1.707,2.235,2.561,5.612,2.561,10.186c0,2.169,0,4.339,0,6.498c0,4.744-0.631,8.243-1.856,10.526
		c-1.225,2.254-3.157,3.806-5.828,4.621c-2.675,0.816-8.168,1.112-16.483,1.207c-7.983,0.092-15.926,0.312-23.871,0.575
		c0-11.751,0-23.512,0-35.263C182.826,117.315,182.826,105.554,182.826,93.793L182.826,93.793z M203.503,105.742
		c0,5.187,0,10.384,0,15.58c0.891-0.037,1.56-0.053,2.043-0.056c1.968-0.015,3.267-0.472,3.787-1.349
		c0.556-0.877,0.816-3.405,0.816-7.544c0-2.198-0.222-3.726-0.668-4.612c-0.446-0.868-1.04-1.424-1.745-1.65
		C206.993,105.884,205.582,105.761,203.503,105.742L203.503,105.742z M203.503,132.215c0,3.273,0,6.555,0,9.827
		c0,3.273,0,6.555,0,9.827c2.859-0.132,4.689-0.554,5.495-1.291c0.791-0.724,1.151-2.529,1.151-5.357c0-2.178,0-4.357,0-6.536
		c0-3.008-0.334-4.819-1.04-5.46C208.404,132.602,206.547,132.272,203.503,132.215L203.503,132.215z M285.288,93.849
		c0,8.14,0,16.288,0,24.427c0,8.13,0,16.269,0,24.408c0,5.536-0.222,9.422-0.594,11.62c-0.408,2.207-1.559,4.414-3.49,6.583
		c-1.93,2.188-4.492,3.792-7.647,4.782s-6.868,1.325-11.174,1.028c-4.715-0.325-8.91-1.207-12.548-2.754
		c-3.638-1.537-6.348-3.443-8.13-5.743c-1.819-2.292-2.859-4.687-3.193-7.177c-0.334-2.48-0.482-7.696-0.482-15.618
		c0-6.942,0-13.873,0-20.806c0-6.932,0-13.864,0-20.805c6.906,0,13.81,0.01,20.715,0.019c0,8.884,0,17.778,0,26.671
		s0,17.778,0,26.672c0,3.103,0.186,5.102,0.52,5.979c0.37,0.896,1.151,1.372,2.265,1.433c1.261,0.07,2.116-0.349,2.486-1.292
		c0.372-0.934,0.557-3.188,0.557-6.743c0-8.781,0-17.57,0-26.351c0-8.79,0-17.58,0-26.36
		C271.478,93.83,278.383,93.83,285.288,93.849L285.288,93.849z M293.307,93.859c4.864,0.009,9.726,0.026,14.627,0.038
		c9.726,0.025,16.337,0.387,19.787,1.141c3.455,0.755,6.274,2.698,8.464,5.81c2.154,3.122,3.267,8.102,3.267,14.892
		c0,6.196-0.78,10.318-2.339,12.336c-1.522,2.009-4.529,3.055-9.058,3.112c4.083,1.32,6.83,2.886,8.241,4.715
		c1.411,1.811,2.301,3.462,2.636,4.923c0.334,1.462,0.519,5.405,0.519,11.846c0,3.517,0,7.026,0,10.534c0,3.509,0,7.008,0,10.516
		c-6.422-1.028-12.845-2.047-19.23-2.886c0-4.263,0-8.526,0-12.789c0-4.262,0-8.535,0-12.807c0-4.113-0.334-6.687-1.002-7.715
		c-0.631-1.038-2.376-1.641-5.197-1.849c0,5.734,0,11.459,0,17.184c0,5.724,0,11.449,0,17.174
		c-6.906-0.887-13.81-1.698-20.715-2.358c0-12.298,0-24.606,0-36.904S293.307,106.167,293.307,93.859L293.307,93.859z
		 M314.023,106.902c0,5.65,0,11.289,0,16.939c2.301,0.122,3.898-0.105,4.826-0.67c0.928-0.566,1.374-2.556,1.374-5.951
		c0-1.405,0-2.82,0-4.225c0-2.443-0.446-4.056-1.336-4.839C317.996,107.374,316.362,106.959,314.023,106.902L314.023,106.902z
		 M394.805,119.74l-20.716,4.107c0-2.603,0-3.185,0-5.797c0-4.933-0.185-8.017-0.593-9.271c-0.372-1.264-1.3-1.907-2.748-1.952
		c-1.224-0.039-2.079,0.443-2.525,1.49c-0.482,1.019-0.667,3.697-0.667,8.026c0,6.771,0,13.553,0,20.324c0,6.762,0,13.534,0,20.305
		c0,3.773,0.2,6.314,0.667,7.601c0.461,1.268,1.338,2.008,2.673,2.235c1.485,0.253,2.45-0.246,3.008-1.509
		c0.519-1.292,0.779-3.942,0.779-7.95c0-3.405,0-6.809,0-10.205c-1.336-0.189-2.673-0.368-4.009-0.537c0-4.31,0-8.62,0-12.94
		c8.019,0.839,16.075,1.688,24.131,2.537c0,8.092,0,16.184,0,24.267c0,8.083,0,16.175,0,24.257
		c-4.344-0.962-8.688-1.933-13.031-2.905c-0.668-2.235-1.3-4.461-1.93-6.668c-1.411,2.396-3.155,4.027-5.309,4.895
		c-2.153,0.867-4.678,1.01-7.573,0.443c-3.453-0.677-6.683-2.17-9.727-4.518c-3.007-2.33-5.309-4.885-6.868-7.724
		c-1.559-2.81-2.561-5.612-2.933-8.45c-0.408-2.829-0.594-7.026-0.594-12.591c0-3.999,0-8.007,0-12.006c0-3.999,0-8.017,0-12.025
		c0-7.715,0.408-13.307,1.226-16.787c0.816-3.509,3.162-6.669,7.016-9.582c3.905-2.952,8.872-4.452,15.035-4.452
		c6.052,0,11.069,1.372,15.036,4.169C393.59,102.48,394.805,110.494,394.805,119.74L394.805,119.74z"/>
	<polygon class="st2" points="83.35,60.698 87.802,71.382 99.701,72.168 90.552,79.556 93.455,90.726 83.35,84.608 73.245,90.726 
		76.148,79.556 66.999,72.168 78.898,71.382 83.35,60.698 	"/>
	<path class="st2" d="M99.32,193.338c-0.639,0.069-1.232,0.044-1.848-0.074c-0.593-0.114-1.049-0.264-1.391-0.43
		c-0.091,0.229-0.183,0.461-0.274,0.688c-0.251,0.026-0.502,0.055-0.753,0.082c-0.046-1.194-0.091-2.394-0.114-3.596
		c0.228-0.024,0.456-0.05,0.707-0.076c0.091,0.279,0.251,0.591,0.479,0.928c0.228,0.337,0.48,0.637,0.776,0.891
		c0.298,0.257,0.641,0.465,1.027,0.62c0.39,0.156,0.798,0.214,1.255,0.163c0.593-0.065,1.022-0.234,1.3-0.488
		c0.292-0.266,0.434-0.628,0.434-1.11c0-0.258-0.076-0.458-0.205-0.617c-0.122-0.15-0.296-0.287-0.525-0.38
		c-0.25-0.102-0.525-0.179-0.821-0.237c-0.297-0.058-0.662-0.123-1.118-0.206c-0.433-0.078-0.799-0.17-1.118-0.266
		c-0.32-0.096-0.636-0.273-0.958-0.517c-0.294-0.223-0.524-0.494-0.707-0.831c-0.181-0.333-0.251-0.749-0.251-1.239
		c0-0.912,0.368-1.679,1.141-2.339c0.756-0.645,1.757-1.047,3.011-1.192c0.57-0.066,1.118-0.073,1.62-0.008
		c0.479,0.062,0.89,0.148,1.232,0.25c0.069-0.198,0.137-0.398,0.205-0.598c0.228-0.024,0.479-0.055,0.73-0.084
		c0.046,1.097,0.091,2.196,0.16,3.288c-0.228,0.029-0.456,0.055-0.684,0.082c-0.205-0.648-0.589-1.192-1.141-1.608
		c-0.566-0.427-1.163-0.596-1.779-0.525c-0.502,0.058-0.893,0.202-1.186,0.448c-0.277,0.233-0.411,0.54-0.411,0.907
		c0,0.493,0.205,0.826,0.616,0.999c0.41,0.172,1.003,0.314,1.734,0.422c1.163,0.172,2.014,0.467,2.555,0.928
		c0.531,0.452,0.798,1.084,0.798,1.88c0,1.068-0.416,1.932-1.255,2.61C101.733,192.773,100.643,193.194,99.32,193.338L99.32,193.338
		z M117.615,190.936c-1.551,0.24-3.08,0.477-4.608,0.715c-0.046-0.04-0.091-0.082-0.137-0.124c0-0.425,0-0.852,0-1.276
		c-0.023,0.003-0.046,0.005-0.068,0.008c-0.228,0.224-0.434,0.44-0.639,0.651c-0.205,0.211-0.457,0.407-0.753,0.596
		c-0.32,0.204-0.639,0.364-0.935,0.477c-0.297,0.113-0.708,0.189-1.277,0.248c-0.982,0.102-1.713-0.104-2.236-0.635
		c-0.527-0.536-0.776-1.345-0.776-2.418c0-1.461,0-2.922,0-4.385c0-0.251-0.053-0.448-0.16-0.601
		c-0.099-0.142-0.204-0.277-0.365-0.38c-0.135-0.087-0.297-0.133-0.502-0.153c-0.205-0.02-0.411-0.018-0.57-0.016
		c0-0.24,0-0.477,0-0.717c1.551-0.266,3.102-0.533,4.676-0.802c0.023,0.048,0.069,0.09,0.114,0.135c0,1.084,0,2.167,0,3.248
		c0,1.078,0,2.165,0,3.243c0,0.67,0.106,1.164,0.365,1.453c0.266,0.297,0.616,0.417,1.049,0.377c0.479-0.044,0.89-0.205,1.255-0.48
		c0.366-0.276,0.616-0.559,0.798-0.849c0-0.878,0-1.756,0-2.634c0-0.875,0-1.753,0-2.631c0-0.222-0.056-0.406-0.137-0.577
		c-0.079-0.169-0.207-0.301-0.365-0.393c-0.115-0.066-0.274-0.107-0.479-0.111c-0.228-0.004-0.456,0-0.662,0.008
		c0-0.24,0-0.48,0-0.72c1.551-0.243,3.102-0.485,4.676-0.73c0.046,0.045,0.091,0.09,0.16,0.132c0,1.263,0,2.523,0,3.781
		c0,1.26,0,2.521,0,3.781c0,0.227,0.037,0.421,0.114,0.569c0.082,0.158,0.23,0.271,0.411,0.369c0.116,0.063,0.274,0.104,0.479,0.116
		c0.183,0.011,0.388,0.01,0.57,0C117.615,190.454,117.615,190.694,117.615,190.936L117.615,190.936z M122.884,190.957
		c-0.616,0.055-1.232,0.024-1.825-0.105c-0.593-0.129-1.072-0.28-1.391-0.459c-0.114,0.235-0.205,0.467-0.297,0.696
		c-0.251,0.024-0.502,0.05-0.753,0.069c-0.046-1.213-0.091-2.428-0.114-3.647c0.228-0.024,0.456-0.045,0.707-0.069
		c0.114,0.285,0.264,0.607,0.479,0.952c0.219,0.351,0.491,0.663,0.776,0.918c0.309,0.276,0.662,0.478,1.049,0.643
		c0.389,0.166,0.799,0.231,1.232,0.19c0.593-0.056,1.031-0.209,1.323-0.469c0.278-0.248,0.411-0.622,0.411-1.11
		c0-0.261-0.046-0.475-0.183-0.636c-0.137-0.161-0.296-0.296-0.525-0.398c-0.25-0.112-0.524-0.199-0.821-0.258
		c-0.319-0.064-0.685-0.139-1.118-0.227c-0.434-0.088-0.82-0.192-1.118-0.293c-0.318-0.107-0.641-0.28-0.981-0.535
		c-0.298-0.224-0.514-0.516-0.684-0.857c-0.172-0.345-0.274-0.762-0.274-1.258c0-0.925,0.382-1.712,1.141-2.352
		c0.77-0.65,1.779-1.032,3.011-1.155c0.593-0.059,1.118-0.042,1.62,0.037c0.501,0.079,0.912,0.177,1.255,0.293
		c0.046-0.195,0.114-0.398,0.183-0.596c0.251-0.021,0.502-0.042,0.753-0.063c0.046,1.113,0.091,2.228,0.16,3.335
		c-0.228,0.018-0.456,0.037-0.684,0.058c-0.228-0.662-0.617-1.216-1.163-1.664c-0.549-0.449-1.141-0.648-1.779-0.588
		c-0.502,0.047-0.884,0.199-1.163,0.432c-0.291,0.244-0.433,0.54-0.433,0.912c0,0.501,0.203,0.846,0.616,1.023
		c0.431,0.184,1.004,0.333,1.756,0.467c1.163,0.206,2.004,0.55,2.532,1.023c0.544,0.487,0.798,1.123,0.798,1.93
		c0,1.081-0.407,1.953-1.232,2.602C125.307,190.461,124.23,190.836,122.884,190.957L122.884,190.957z M141.157,189.212
		c-1.939,0.127-3.878,0.261-5.817,0.417c0-0.243,0-0.485,0-0.728c0.137-0.026,0.297-0.055,0.456-0.087
		c0.183-0.036,0.296-0.074,0.388-0.129c0.137-0.082,0.238-0.193,0.297-0.34c0.056-0.139,0.068-0.348,0.068-0.622
		c0-1.543,0-3.085,0-4.628c0-0.68-0.114-1.181-0.365-1.495c-0.251-0.314-0.593-0.458-1.072-0.417
		c-0.251,0.022-0.48,0.08-0.707,0.177c-0.229,0.098-0.455,0.236-0.662,0.406c-0.181,0.149-0.342,0.293-0.456,0.44
		c-0.114,0.148-0.205,0.277-0.274,0.388c0,0.886,0,1.772,0,2.655c0,0.883,0,1.767,0,2.65c0,0.248,0.032,0.433,0.091,0.575
		c0.055,0.133,0.161,0.241,0.319,0.324c0.092,0.048,0.229,0.091,0.388,0.127c0.138,0.03,0.297,0.053,0.433,0.063
		c0,0.243,0,0.485,0,0.728c-1.962,0.158-3.924,0.316-5.885,0.472c0-0.243,0-0.483,0-0.728c0.183-0.029,0.342-0.055,0.502-0.09
		s0.295-0.078,0.411-0.129c0.227-0.101,0.365-0.224,0.433-0.377c0.068-0.153,0.114-0.351,0.114-0.593c0-1.83,0-3.66,0-5.492
		c0-1.83,0-3.662,0-5.495c0-0.211-0.055-0.423-0.16-0.657c-0.1-0.223-0.226-0.396-0.388-0.496c-0.135-0.083-0.32-0.123-0.57-0.153
		c-0.229-0.028-0.456-0.045-0.639-0.042c0-0.242,0-0.482,0-0.728c1.597-0.222,3.194-0.448,4.791-0.675
		c0.046,0.053,0.091,0.1,0.16,0.148c0,1.131,0,2.262,0,3.396c0,1.131,0,2.262,0,3.393c0,0,0,0,0.023-0.003
		c0.251-0.243,0.473-0.47,0.662-0.662c0.2-0.203,0.458-0.399,0.73-0.609c0.23-0.177,0.548-0.34,0.935-0.485
		c0.388-0.145,0.798-0.235,1.232-0.272c1.049-0.088,1.847,0.165,2.373,0.743c0.523,0.576,0.776,1.366,0.776,2.37
		c0,1.616,0,3.235,0,4.854c0,0.243,0.046,0.435,0.114,0.575c0.069,0.142,0.204,0.251,0.388,0.324
		c0.113,0.045,0.25,0.082,0.388,0.113c0.136,0.031,0.319,0.048,0.525,0.061C141.157,188.727,141.157,188.969,141.157,189.212
		L141.157,189.212z M148.16,188.758c-2.03,0.132-4.06,0.264-6.091,0.395c0-0.242,0-0.488,0-0.73
		c0.182-0.026,0.342-0.053,0.502-0.082c0.16-0.029,0.297-0.071,0.411-0.127c0.183-0.089,0.333-0.221,0.411-0.369
		c0.082-0.155,0.137-0.351,0.137-0.593c0-0.957,0-1.917,0-2.874c0-0.957,0-1.92,0-2.879c0-0.229-0.053-0.425-0.16-0.598
		c-0.099-0.162-0.229-0.297-0.388-0.393c-0.115-0.07-0.297-0.132-0.525-0.19c-0.229-0.058-0.433-0.09-0.639-0.095
		c0-0.243,0-0.485,0-0.73c1.574-0.195,3.148-0.393,4.745-0.588c0.046,0.047,0.091,0.095,0.16,0.14c0,1.313,0,2.623,0,3.934
		s0,2.621,0,3.934c0,0.229,0.046,0.425,0.137,0.58c0.091,0.156,0.228,0.27,0.411,0.335c0.136,0.048,0.272,0.097,0.411,0.132
		c0.158,0.039,0.319,0.055,0.479,0.066C148.16,188.27,148.16,188.513,148.16,188.758L148.16,188.758z M146.769,175.327
		c0,0.506-0.188,0.939-0.57,1.326c-0.37,0.375-0.821,0.585-1.323,0.62c-0.525,0.036-0.975-0.114-1.346-0.438
		c-0.382-0.333-0.57-0.741-0.57-1.245c0-0.501,0.187-0.937,0.57-1.326c0.369-0.375,0.821-0.588,1.346-0.625
		c0.525-0.037,0.964,0.104,1.346,0.438C146.593,174.402,146.769,174.829,146.769,175.327L146.769,175.327z M153.704,187.896
		c0,0.809-0.319,1.649-0.981,2.529c-0.661,0.878-1.46,1.566-2.372,2.057c-0.16-0.224-0.297-0.451-0.433-0.678
		c0.319-0.195,0.612-0.403,0.89-0.614c0.293-0.223,0.544-0.469,0.753-0.744c0.225-0.295,0.41-0.588,0.547-0.886
		c0.136-0.296,0.205-0.651,0.251-1.071c-0.183,0.008-0.365,0.02-0.548,0.032c-0.661,0.043-1.159-0.085-1.483-0.361
		c-0.337-0.288-0.502-0.693-0.502-1.229c0-0.422,0.16-0.817,0.479-1.179c0.32-0.363,0.707-0.558,1.186-0.588
		c0.73-0.046,1.27,0.185,1.642,0.667C153.514,186.325,153.704,187.008,153.704,187.896L153.704,187.896z M172.364,182.712
		c0,1.405-0.433,2.626-1.346,3.662c-0.912,1.036-2.053,1.583-3.467,1.632c-0.616,0.022-1.119-0.025-1.506-0.137
		c-0.366-0.106-0.707-0.253-0.958-0.427c-0.023,0-0.046,0.003-0.068,0.003c0,0.931,0,1.859,0,2.79c0,0.232,0.054,0.425,0.16,0.596
		c0.099,0.161,0.228,0.289,0.411,0.356c0.182,0.067,0.411,0.119,0.73,0.163c0.319,0.045,0.593,0.071,0.798,0.076
		c0,0.253,0,0.506,0,0.754c-2.327,0.105-4.654,0.222-6.981,0.337c0-0.248,0-0.501,0-0.751c0.16-0.024,0.365-0.054,0.616-0.106
		c0.251-0.051,0.435-0.094,0.548-0.14c0.207-0.084,0.334-0.22,0.411-0.393c0.083-0.188,0.114-0.385,0.114-0.609
		c0-1.693,0-3.388,0-5.081c0-1.693,0.02-3.386,0-5.081c-0.003-0.217-0.059-0.408-0.137-0.567c-0.082-0.168-0.203-0.307-0.388-0.419
		c-0.135-0.082-0.296-0.143-0.502-0.185c-0.227-0.046-0.433-0.071-0.639-0.082c0-0.243,0-0.488,0-0.733
		c1.574-0.169,3.148-0.343,4.722-0.512c0.046,0.04,0.091,0.082,0.137,0.121c0,0.364,0,0.73,0,1.094
		c0.023,0.008,0.046,0.013,0.068,0.016c0.434-0.464,0.915-0.835,1.437-1.107c0.504-0.263,1.027-0.409,1.528-0.427
		c1.346-0.05,2.394,0.399,3.171,1.347C171.997,179.85,172.364,181.12,172.364,182.712L172.364,182.712z M168.896,182.876
		c0-0.501-0.023-0.981-0.091-1.434c-0.068-0.454-0.213-0.851-0.388-1.213c-0.167-0.347-0.406-0.631-0.684-0.831
		c-0.292-0.209-0.639-0.295-1.049-0.279c-0.41,0.016-0.752,0.109-1.004,0.272c-0.25,0.162-0.479,0.369-0.662,0.62
		c0,0.944,0,1.888,0,2.832c0,0.944,0,1.885,0,2.829c0.046,0.129,0.114,0.298,0.228,0.504c0.113,0.203,0.219,0.371,0.319,0.488
		c0.151,0.176,0.341,0.295,0.547,0.372c0.204,0.076,0.433,0.11,0.684,0.1c0.638-0.025,1.141-0.395,1.528-1.118
		C168.714,185.291,168.896,184.247,168.896,182.876L168.896,182.876z M179.732,187.305c-2.03,0.074-4.06,0.145-6.068,0.216
		c0-0.245,0-0.49,0-0.736c0.16-0.018,0.319-0.041,0.479-0.066c0.159-0.025,0.295-0.067,0.411-0.116
		c0.203-0.086,0.351-0.201,0.433-0.356c0.077-0.146,0.114-0.351,0.114-0.593c0-0.965,0-1.93,0-2.893c0-0.965,0-1.93,0-2.898
		c0-0.232-0.054-0.428-0.16-0.607c-0.099-0.167-0.229-0.308-0.388-0.409c-0.115-0.073-0.275-0.14-0.525-0.208
		c-0.23-0.063-0.433-0.103-0.639-0.116c0-0.245,0-0.488,0-0.736c1.574-0.145,3.171-0.293,4.768-0.44
		c0.046,0.05,0.091,0.098,0.137,0.148c0,1.318,0,2.637,0,3.955c0,1.318,0,2.637,0,3.955c0,0.232,0.046,0.427,0.137,0.588
		c0.091,0.161,0.228,0.277,0.411,0.348c0.137,0.053,0.274,0.105,0.433,0.148c0.137,0.036,0.297,0.066,0.456,0.079
		C179.732,186.818,179.732,187.063,179.732,187.305L179.732,187.305z M178.363,173.758c0,0.509-0.2,0.95-0.57,1.313
		c-0.382,0.375-0.821,0.563-1.346,0.583c-0.525,0.02-0.976-0.145-1.346-0.482c-0.383-0.348-0.57-0.765-0.57-1.271
		c0-0.504,0.188-0.939,0.57-1.316c0.37-0.364,0.821-0.566,1.346-0.585c0.525-0.02,0.982,0.142,1.346,0.485
		C178.159,172.829,178.363,173.257,178.363,173.758L178.363,173.758z M190.02,187.079c-3.194,0.066-6.364,0.129-9.535,0.2
		c0-0.227,0-0.454,0-0.68c0.913-1.408,1.847-2.811,2.76-4.216c0.912-1.403,1.848-2.811,2.783-4.216
		c-0.776,0.016-1.46,0.042-2.076,0.076c-0.616,0.034-1.094,0.12-1.46,0.269c-0.114,0.046-0.275,0.297-0.479,0.736
		c-0.207,0.445-0.365,0.904-0.479,1.384c-0.228,0.005-0.456,0.01-0.662,0.013c0-1.089,0-2.178,0-3.269
		c2.988-0.063,6-0.127,9.011-0.193c0,0.206,0,0.411,0,0.614c-0.935,1.419-1.894,2.837-2.806,4.253
		c-0.912,1.416-1.87,2.832-2.783,4.245c0.137-0.003,0.365-0.003,0.684-0.003c0.297,0,0.57-0.002,0.844-0.008
		c0.319-0.007,0.662-0.021,1.027-0.045c0.365-0.024,0.639-0.052,0.844-0.082c0.274-0.039,0.48-0.139,0.639-0.295
		c0.16-0.158,0.271-0.344,0.365-0.556c0.088-0.199,0.206-0.493,0.342-0.883c0.138-0.395,0.228-0.746,0.297-1.052
		c0.228-0.005,0.456-0.011,0.684-0.013C190.02,184.6,190.02,185.839,190.02,187.079L190.02,187.079z M200.423,186.939
		c-3.194,0.021-6.364,0.055-9.535,0.121c0-0.227,0-0.454,0-0.68c0.912-1.405,1.847-2.811,2.76-4.216
		c0.912-1.403,1.871-2.805,2.806-4.198c-0.776,0.005-1.46,0.021-2.076,0.055c-0.616,0.034-1.094,0.121-1.46,0.272
		c-0.113,0.047-0.307,0.291-0.502,0.736c-0.193,0.439-0.342,0.904-0.479,1.382c-0.228,0.005-0.456,0.01-0.662,0.016
		c0-1.092,0-2.181,0-3.272c2.988-0.063,5.999-0.092,9.011-0.111c0,0.206,0,0.411,0,0.612c-0.935,1.408-1.894,2.811-2.806,4.213
		c-0.912,1.403-1.871,2.805-2.783,4.211c0.16-0.003,0.388-0.002,0.684,0.003c0.296,0.005,0.593,0.004,0.844,0.003
		c0.342-0.001,0.662-0.009,1.027-0.029c0.365-0.02,0.662-0.044,0.844-0.069c0.274-0.036,0.479-0.134,0.639-0.287
		c0.16-0.153,0.304-0.337,0.388-0.551c0.076-0.192,0.183-0.488,0.319-0.878c0.137-0.393,0.251-0.741,0.319-1.049
		c0.205,0,0.434-0.003,0.662-0.003C200.423,184.461,200.423,185.7,200.423,186.939L200.423,186.939z M212.513,186.699
		c-0.297,0.127-0.616,0.241-1.004,0.346c-0.387,0.104-0.799,0.154-1.232,0.15c-0.776-0.007-1.349-0.122-1.734-0.366
		c-0.368-0.233-0.616-0.585-0.753-1.036c-0.023,0-0.046,0-0.068,0c-0.205,0.227-0.429,0.427-0.616,0.583
		c-0.201,0.167-0.431,0.304-0.662,0.414c-0.316,0.151-0.594,0.257-0.89,0.335c-0.274,0.072-0.662,0.116-1.163,0.119
		c-0.753,0.005-1.396-0.217-1.939-0.675c-0.529-0.446-0.776-1.052-0.776-1.806c0-0.432,0.045-0.802,0.16-1.108
		c0.113-0.301,0.301-0.571,0.502-0.804c0.186-0.216,0.408-0.401,0.662-0.538c0.271-0.146,0.544-0.28,0.844-0.396
		c0.59-0.227,1.277-0.454,2.099-0.696c0.82-0.242,1.414-0.453,1.779-0.643c0-0.319,0-0.638,0-0.957c0-0.169,0-0.39-0.023-0.662
		c-0.023-0.271-0.106-0.494-0.183-0.686c-0.084-0.211-0.224-0.401-0.41-0.54c-0.201-0.151-0.456-0.216-0.776-0.214
		c-0.296,0.002-0.522,0.048-0.707,0.129c-0.203,0.09-0.342,0.171-0.479,0.258c0.023,0.132,0.102,0.331,0.183,0.606
		c0.079,0.271,0.114,0.535,0.114,0.791c0,0.114-0.013,0.256-0.068,0.422c-0.059,0.175-0.152,0.317-0.251,0.409
		c-0.152,0.14-0.319,0.236-0.502,0.311c-0.182,0.075-0.479,0.114-0.844,0.116c-0.547,0.003-0.958-0.133-1.232-0.401
		c-0.273-0.267-0.411-0.617-0.411-1.049c0-0.372,0.13-0.713,0.411-1.005c0.29-0.302,0.64-0.54,1.049-0.738
		c0.412-0.2,0.89-0.36,1.414-0.475c0.524-0.115,1.027-0.171,1.483-0.174c0.616-0.005,1.186,0.033,1.711,0.105
		c0.524,0.072,1.003,0.232,1.414,0.472c0.409,0.239,0.73,0.578,0.958,1.02c0.228,0.443,0.342,1.02,0.342,1.73
		c0,0.751,0.011,1.64-0.023,2.671c-0.034,1.029-0.046,1.706-0.046,2.03c0,0.301,0.036,0.54,0.114,0.709
		c0.081,0.176,0.229,0.299,0.411,0.393c0.092,0.048,0.274,0.09,0.502,0.1c0.228,0.01,0.433,0.019,0.639,0.019
		C212.513,186.214,212.513,186.456,212.513,186.699L212.513,186.699z M207.723,181.494c-0.365,0.129-0.708,0.276-1.072,0.443
		c-0.366,0.168-0.663,0.339-0.89,0.522c-0.229,0.186-0.428,0.419-0.57,0.72c-0.132,0.28-0.183,0.63-0.183,1.026
		c0,0.517,0.116,0.895,0.342,1.123c0.23,0.233,0.502,0.35,0.844,0.348c0.365-0.003,0.662-0.078,0.89-0.229
		c0.229-0.152,0.433-0.338,0.616-0.562C207.7,183.754,207.7,182.625,207.723,181.494L207.723,181.494z M233.637,187.226
		c-1.893-0.042-3.787-0.084-5.68-0.129c-0.137-0.182-0.342-0.419-0.593-0.715c-0.251-0.295-0.456-0.556-0.616-0.786
		c-0.684,0.628-1.369,1.073-2.053,1.337c-0.684,0.264-1.415,0.391-2.167,0.385c-1.209-0.01-2.189-0.354-2.966-1.031
		c-0.775-0.676-1.163-1.553-1.163-2.626c0-0.535,0.068-0.997,0.205-1.382c0.136-0.382,0.367-0.763,0.684-1.15
		c0.299-0.365,0.66-0.698,1.095-0.989c0.432-0.289,0.935-0.562,1.483-0.815c-0.57-0.765-0.98-1.411-1.209-1.949
		c-0.227-0.533-0.342-1.076-0.342-1.637c0-0.957,0.392-1.737,1.163-2.357c0.757-0.609,1.688-0.914,2.76-0.891
		c1.004,0.022,1.822,0.294,2.441,0.796c0.635,0.515,0.935,1.168,0.935,1.978c0,0.704-0.175,1.334-0.547,1.872
		c-0.381,0.551-1.004,1.076-1.871,1.585c0.707,0.947,1.255,1.661,1.642,2.138c0.388,0.477,0.89,1.105,1.528,1.885
		c0.411-0.606,0.707-1.16,0.913-1.672s0.297-0.941,0.297-1.289c0-0.198-0.134-0.369-0.411-0.493
		c-0.294-0.132-0.707-0.251-1.232-0.369c0-0.258,0-0.514,0-0.775c1.802,0.045,3.604,0.087,5.406,0.129c0,0.261,0,0.517,0,0.775
		c-0.593,0.04-1.025,0.105-1.3,0.187c-0.295,0.089-0.567,0.27-0.821,0.543c-0.111,0.119-0.263,0.327-0.433,0.622
		c-0.172,0.299-0.346,0.578-0.502,0.854c-0.186,0.328-0.374,0.675-0.593,1.044c-0.214,0.361-0.456,0.743-0.776,1.142
		c0.593,0.738,1.102,1.28,1.483,1.653c0.372,0.365,0.687,0.616,0.935,0.759c0.276,0.159,0.616,0.289,1.049,0.39
		c0.434,0.101,0.844,0.169,1.255,0.206C233.637,186.71,233.637,186.968,233.637,187.226L233.637,187.226z M226.155,175.382
		c0-0.585-0.137-1.049-0.411-1.392c-0.274-0.343-0.616-0.519-1.072-0.53c-0.41-0.01-0.752,0.122-1.004,0.39
		c-0.25,0.267-0.388,0.628-0.388,1.073c0,0.385,0.123,0.816,0.365,1.318c0.237,0.492,0.593,1.094,1.095,1.804
		c0.479-0.34,0.844-0.741,1.072-1.205C226.04,176.376,226.155,175.891,226.155,175.382L226.155,175.382z M226.223,184.935
		c-0.548-0.683-1.17-1.474-1.894-2.386c-0.713-0.899-1.391-1.761-2.007-2.571c-0.342,0.34-0.582,0.744-0.73,1.202
		c-0.148,0.46-0.228,0.918-0.228,1.382c0,0.881,0.272,1.602,0.821,2.165c0.545,0.558,1.232,0.843,2.076,0.862
		c0.41,0.009,0.751-0.04,1.027-0.129C225.582,185.364,225.904,185.191,226.223,184.935L226.223,184.935z M250.723,182.952
		c0,1.487-0.479,2.705-1.437,3.649c-0.958,0.944-2.19,1.389-3.65,1.334c-0.57-0.021-1.071-0.086-1.46-0.179
		c-0.41-0.099-0.775-0.209-1.049-0.337c-0.296-0.138-0.544-0.279-0.707-0.401c-0.179-0.134-0.319-0.237-0.433-0.322
		c-0.456,0.414-0.912,0.825-1.369,1.239c-0.205-0.084-0.411-0.166-0.593-0.248c0.046-0.485,0.069-1.01,0.091-1.572
		c0.023-0.564,0.046-1.329,0.046-2.289c0-1.548,0-3.096,0-4.643c0-1.548,0-3.098,0-4.646c0-0.251-0.068-0.488-0.16-0.707
		c-0.091-0.219-0.232-0.382-0.411-0.506c-0.118-0.082-0.296-0.165-0.525-0.232c-0.228-0.067-0.456-0.113-0.662-0.134
		c0-0.242,0-0.488,0-0.733c1.597-0.024,3.194-0.047,4.791-0.074c0.046,0.058,0.091,0.111,0.137,0.166c0,1.076,0,2.151,0,3.227
		c0,1.073,0,2.146,0,3.222c0.023,0,0.046,0,0.068,0.003c0.479-0.454,0.96-0.775,1.46-0.978c0.481-0.195,0.981-0.291,1.483-0.272
		c1.346,0.052,2.411,0.575,3.194,1.545C250.329,180.047,250.723,181.339,250.723,182.952L250.723,182.952z M247.256,182.939
		c0-0.506-0.045-0.992-0.114-1.463c-0.068-0.469-0.214-0.884-0.388-1.252c-0.168-0.357-0.391-0.655-0.684-0.889
		c-0.277-0.22-0.639-0.344-1.049-0.359c-0.388-0.014-0.729,0.039-0.981,0.161c-0.25,0.121-0.479,0.309-0.707,0.556
		c0,0.968,0,1.933,0,2.898s0,1.93,0,2.895c0.046,0.134,0.114,0.308,0.228,0.53c0.114,0.221,0.208,0.388,0.319,0.511
		c0.162,0.18,0.32,0.318,0.502,0.414c0.183,0.096,0.411,0.152,0.73,0.163c0.662,0.023,1.195-0.322,1.574-1.052
		C247.059,185.333,247.256,184.289,247.256,182.939L247.256,182.939z M264.57,188.289c-1.551,0.016-3.08,0.032-4.608,0.045
		c-0.046-0.048-0.091-0.095-0.137-0.145c0-0.43,0-0.86,0-1.289c-0.023,0-0.046-0.003-0.069-0.003
		c-0.205,0.195-0.434,0.379-0.639,0.564c-0.206,0.186-0.457,0.347-0.753,0.493c-0.32,0.157-0.638,0.277-0.913,0.345
		c-0.296,0.074-0.73,0.092-1.3,0.063c-0.958-0.048-1.719-0.381-2.236-1.012c-0.509-0.621-0.776-1.49-0.776-2.581
		c0-1.484,0-2.969,0-4.453c0-0.256-0.046-0.47-0.137-0.635c-0.091-0.166-0.228-0.317-0.388-0.448
		c-0.136-0.111-0.297-0.185-0.502-0.24c-0.206-0.055-0.388-0.09-0.548-0.111c0-0.243,0-0.485,0-0.73
		c1.551-0.008,3.102-0.013,4.654-0.018c0.023,0.053,0.068,0.103,0.114,0.155c0,1.097,0,2.194,0,3.288s0,2.194,0,3.288
		c0,0.678,0.136,1.19,0.388,1.527c0.25,0.333,0.593,0.512,1.049,0.535c0.456,0.024,0.868-0.075,1.232-0.298
		c0.366-0.225,0.639-0.472,0.798-0.741c0-0.886,0-1.772,0-2.658c0-0.889,0-1.775,0-2.66c0-0.222-0.037-0.428-0.114-0.604
		c-0.083-0.188-0.205-0.336-0.365-0.456c-0.113-0.085-0.297-0.147-0.502-0.182c-0.228-0.039-0.433-0.071-0.662-0.095
		c0-0.243,0-0.485,0-0.73c1.551-0.005,3.125-0.008,4.699-0.013c0.046,0.055,0.091,0.108,0.137,0.158c0,1.271,0,2.539,0,3.81
		c0,1.268,0,2.539,0,3.807c0,0.229,0.045,0.427,0.137,0.596c0.091,0.166,0.227,0.309,0.388,0.43
		c0.113,0.085,0.274,0.148,0.479,0.187c0.206,0.04,0.388,0.069,0.57,0.084C264.57,187.804,264.57,188.046,264.57,188.289
		L264.57,188.289z M275.018,181.183c0,0.498-0.144,0.922-0.456,1.284c-0.304,0.352-0.684,0.519-1.186,0.485
		c-0.479-0.032-0.862-0.183-1.186-0.443c-0.337-0.27-0.502-0.628-0.502-1.099c0-0.227,0.013-0.409,0.046-0.53
		c0.035-0.13,0.069-0.24,0.091-0.351c-0.297-0.008-0.597,0.071-0.935,0.245c-0.323,0.166-0.616,0.411-0.867,0.722
		c0,0.902,0,1.804,0,2.705c0,0.902,0,1.801,0,2.703c0,0.229,0.047,0.424,0.114,0.577c0.069,0.158,0.184,0.277,0.365,0.38
		c0.138,0.079,0.365,0.157,0.684,0.227c0.32,0.07,0.548,0.116,0.684,0.129c0,0.242,0,0.485,0,0.725
		c-2.167-0.142-4.334-0.282-6.479-0.411c0-0.242,0-0.483,0-0.728c0.16-0.003,0.32-0.013,0.479-0.029
		c0.16-0.016,0.319-0.036,0.434-0.069c0.205-0.059,0.333-0.166,0.41-0.308c0.082-0.15,0.114-0.34,0.114-0.58
		c0-0.954,0-1.906,0-2.861s0-1.909,0-2.863c0-0.237-0.045-0.454-0.16-0.649c-0.113-0.193-0.228-0.352-0.388-0.472
		c-0.113-0.085-0.274-0.158-0.456-0.224c-0.16-0.058-0.365-0.108-0.57-0.137c0-0.243,0-0.485,0-0.728
		c1.529,0.003,3.08,0.021,4.631,0.04c0.046,0.053,0.091,0.105,0.137,0.158c0,0.472,0,0.944,0,1.416c0,0,0.023,0.003,0.046,0.003
		c0.433-0.493,0.912-0.876,1.414-1.142c0.501-0.265,1.004-0.377,1.551-0.34c0.593,0.04,1.071,0.265,1.437,0.667
		C274.834,180.085,275.018,180.585,275.018,181.183L275.018,181.183z M286.515,181.376c-0.707-0.058-1.414-0.119-2.122-0.177
		c0.251,0.306,0.442,0.619,0.57,0.954c0.123,0.321,0.183,0.659,0.183,1.007c0,0.451-0.106,0.868-0.342,1.239
		c-0.242,0.38-0.572,0.668-0.958,0.886c-0.389,0.219-0.844,0.386-1.369,0.488c-0.525,0.101-1.118,0.122-1.734,0.074
		c-0.524-0.041-1.049-0.074-1.574-0.111c-0.091,0.055-0.152,0.149-0.251,0.266c-0.106,0.125-0.16,0.237-0.16,0.356
		c0,0.285,0.115,0.494,0.342,0.62c0.229,0.127,0.639,0.21,1.232,0.266c0.594,0.057,1.186,0.132,1.779,0.216
		c0.593,0.084,1.028,0.132,1.3,0.166c0.366,0.045,0.73,0.158,1.095,0.322c0.365,0.163,0.702,0.375,0.958,0.604
		c0.291,0.259,0.555,0.56,0.753,0.941c0.19,0.365,0.274,0.791,0.274,1.255c0,0.498-0.113,0.958-0.342,1.382
		c-0.227,0.42-0.589,0.777-1.072,1.055c-0.521,0.3-1.118,0.503-1.848,0.633c-0.707,0.126-1.596,0.137-2.646,0.063
		c-1.687-0.119-2.987-0.404-3.855-0.875c-0.888-0.483-1.323-1.142-1.323-1.983c0-0.517,0.23-0.931,0.707-1.231
		c0.481-0.303,1.209-0.443,2.213-0.411c0-0.04,0-0.079,0-0.119c-0.593-0.243-1.043-0.546-1.369-0.899
		c-0.336-0.364-0.502-0.762-0.502-1.21c0-0.274,0.06-0.507,0.183-0.686c0.128-0.188,0.318-0.34,0.525-0.469
		c0.181-0.113,0.389-0.202,0.662-0.274c0.252-0.067,0.479-0.127,0.639-0.169c0-0.034,0-0.071,0-0.105
		c-0.867-0.388-1.506-0.831-1.916-1.329c-0.411-0.498-0.616-1.089-0.616-1.772c0-0.962,0.435-1.698,1.323-2.22
		c0.869-0.511,1.962-0.73,3.308-0.633c0.434,0.031,0.867,0.107,1.277,0.219c0.411,0.112,0.73,0.211,0.935,0.285
		c1.232,0.103,2.487,0.206,3.741,0.311C286.515,180.666,286.515,181.022,286.515,181.376L286.515,181.376z M281.976,182.842
		c0-0.767-0.105-1.386-0.342-1.846c-0.242-0.471-0.616-0.719-1.118-0.759c-0.251-0.02-0.479,0.025-0.662,0.134
		c-0.182,0.109-0.35,0.268-0.456,0.496c-0.099,0.21-0.171,0.47-0.205,0.765c-0.034,0.297-0.069,0.599-0.069,0.912
		c0,0.714,0.115,1.31,0.365,1.785c0.251,0.477,0.593,0.725,1.049,0.759c0.456,0.034,0.821-0.137,1.072-0.53
		C281.862,184.165,281.976,183.593,281.976,182.842L281.976,182.842z M283.595,191.239c0-0.224-0.054-0.446-0.183-0.68
		c-0.123-0.225-0.38-0.448-0.821-0.601c-0.222-0.077-0.616-0.112-1.141-0.169c-0.525-0.057-1.255-0.116-2.19-0.179
		c-0.228,0.184-0.419,0.399-0.57,0.664c-0.145,0.254-0.228,0.58-0.228,0.962c0,0.163,0.046,0.346,0.137,0.549
		c0.091,0.203,0.228,0.399,0.433,0.583c0.227,0.203,0.479,0.369,0.753,0.496c0.274,0.126,0.707,0.208,1.255,0.251
		c0.844,0.066,1.464-0.044,1.916-0.34C283.394,192.487,283.595,191.967,283.595,191.239L283.595,191.239z M297.511,188.584
		c-0.228,0.348-0.5,0.672-0.821,0.973c-0.317,0.297-0.682,0.548-1.072,0.741c-0.431,0.213-0.867,0.351-1.323,0.443
		c-0.434,0.087-0.935,0.116-1.528,0.069c-0.935-0.074-1.758-0.271-2.464-0.606c-0.686-0.326-1.255-0.744-1.711-1.245
		c-0.456-0.501-0.787-1.077-1.004-1.724c-0.217-0.65-0.342-1.342-0.342-2.078c0-0.667,0.113-1.295,0.365-1.888
		c0.25-0.588,0.59-1.108,1.027-1.545c0.43-0.43,1.004-0.757,1.665-0.989c0.662-0.232,1.414-0.313,2.236-0.245
		c0.912,0.075,1.642,0.25,2.213,0.519c0.592,0.279,1.074,0.629,1.46,1.057c0.367,0.407,0.626,0.867,0.798,1.389
		c0.17,0.516,0.251,1.06,0.251,1.614c0,0.211,0,0.422,0,0.633c-2.19-0.211-4.38-0.395-6.547-0.572c0,1.34,0.257,2.376,0.776,3.125
		c0.508,0.734,1.3,1.156,2.418,1.245c0.616,0.049,1.162-0.068,1.642-0.361c0.478-0.292,0.89-0.68,1.232-1.16
		C297.009,188.178,297.26,188.384,297.511,188.584L297.511,188.584z M293.815,184.521c0-0.385,0-0.788-0.046-1.2
		c-0.046-0.411-0.111-0.755-0.205-1.02c-0.111-0.315-0.255-0.549-0.456-0.73c-0.186-0.167-0.433-0.27-0.707-0.293
		c-0.502-0.041-0.911,0.18-1.209,0.664c-0.295,0.478-0.456,1.268-0.479,2.365C291.739,184.379,292.766,184.45,293.815,184.521
		L293.815,184.521z M308.096,184.02c0,0.493-0.161,0.911-0.456,1.255c-0.298,0.347-0.707,0.492-1.186,0.445
		c-0.479-0.046-0.87-0.196-1.209-0.475c-0.322-0.265-0.479-0.633-0.479-1.1c0-0.224,0.023-0.398,0.046-0.525
		c0.023-0.124,0.069-0.235,0.091-0.34c-0.297-0.016-0.617,0.054-0.935,0.213c-0.32,0.16-0.616,0.39-0.867,0.688
		c0,0.891,0,1.785,0,2.676s0,1.782,0,2.674c0,0.227,0.047,0.419,0.114,0.572c0.069,0.158,0.181,0.287,0.342,0.388
		c0.135,0.084,0.389,0.161,0.707,0.242c0.298,0.076,0.548,0.132,0.684,0.148c0,0.243,0,0.48,0,0.72
		c-2.167-0.203-4.334-0.406-6.479-0.607c0-0.24,0-0.48,0-0.72c0.16,0.003,0.319,0.001,0.479-0.008
		c0.16-0.009,0.297-0.027,0.411-0.055c0.205-0.051,0.365-0.145,0.433-0.29c0.068-0.143,0.114-0.332,0.114-0.572
		c0-0.941,0-1.885,0-2.829c0-0.941,0-1.888,0-2.832c0-0.235-0.045-0.449-0.16-0.646c-0.113-0.195-0.251-0.356-0.41-0.48
		c-0.114-0.089-0.25-0.171-0.434-0.24c-0.182-0.068-0.365-0.121-0.57-0.163c0-0.237,0-0.477,0-0.72
		c1.528,0.066,3.08,0.127,4.631,0.193c0.046,0.055,0.091,0.105,0.137,0.161c0,0.467,0,0.933,0,1.4c0,0,0.023,0.003,0.046,0.005
		c0.433-0.477,0.916-0.835,1.414-1.086c0.482-0.244,1.004-0.346,1.551-0.293c0.593,0.058,1.073,0.292,1.437,0.699
		C307.913,182.928,308.096,183.427,308.096,184.02L308.096,184.02z M309.122,183.256c0.73-0.272,1.294-0.629,1.711-1.052
		c0.427-0.433,0.662-0.973,0.73-1.643c-0.183-0.024-0.365-0.047-0.548-0.066c-0.387-0.041-0.729-0.128-0.981-0.245
		c-0.25-0.117-0.447-0.271-0.593-0.44c-0.151-0.176-0.263-0.356-0.319-0.551c-0.058-0.201-0.091-0.395-0.091-0.596
		c0-0.417,0.165-0.753,0.502-1.031c0.325-0.268,0.707-0.386,1.163-0.335c0.707,0.08,1.256,0.376,1.642,0.894
		c0.389,0.521,0.57,1.192,0.57,2.03c0,0.778-0.318,1.525-0.981,2.244c-0.66,0.716-1.46,1.229-2.373,1.535
		C309.396,183.751,309.259,183.503,309.122,183.256L309.122,183.256z M318.566,193.333c-0.639-0.07-1.255-0.224-1.848-0.472
		c-0.593-0.248-1.049-0.493-1.392-0.736c-0.114,0.208-0.205,0.419-0.297,0.628c-0.251-0.026-0.502-0.053-0.753-0.079
		c-0.046-1.21-0.091-2.423-0.114-3.633c0.228,0.024,0.479,0.05,0.73,0.079c0.091,0.303,0.25,0.649,0.479,1.039
		c0.228,0.388,0.469,0.752,0.753,1.06c0.31,0.336,0.663,0.604,1.049,0.846c0.39,0.245,0.799,0.39,1.255,0.438
		c0.57,0.06,1.008-0.002,1.3-0.203c0.278-0.192,0.433-0.535,0.433-1.015c0-0.256-0.077-0.471-0.205-0.659
		c-0.123-0.179-0.295-0.348-0.525-0.493c-0.249-0.158-0.526-0.295-0.821-0.416c-0.298-0.123-0.684-0.277-1.118-0.454
		c-0.433-0.177-0.799-0.35-1.118-0.517c-0.32-0.168-0.647-0.4-0.981-0.728c-0.282-0.276-0.501-0.612-0.684-0.991
		c-0.181-0.375-0.274-0.807-0.274-1.3c0-0.915,0.391-1.599,1.163-2.083c0.755-0.473,1.757-0.65,2.988-0.512
		c0.593,0.067,1.139,0.192,1.62,0.361c0.5,0.176,0.912,0.351,1.255,0.53c0.068-0.182,0.137-0.366,0.205-0.549
		c0.228,0.026,0.479,0.053,0.73,0.082c0.046,1.102,0.091,2.207,0.16,3.306c-0.228-0.024-0.456-0.05-0.684-0.074
		c-0.228-0.693-0.617-1.312-1.163-1.859c-0.548-0.548-1.141-0.855-1.779-0.925c-0.479-0.053-0.887,0.01-1.163,0.179
		c-0.293,0.179-0.433,0.448-0.433,0.815c0,0.493,0.208,0.865,0.639,1.136c0.414,0.261,0.981,0.537,1.734,0.812
		c1.163,0.426,2.003,0.924,2.532,1.49c0.543,0.581,0.821,1.255,0.821,2.049c0,1.06-0.434,1.832-1.255,2.323
		C320.984,193.3,319.889,193.477,318.566,193.333L318.566,193.333z"/>
</g>
</svg>
